<mxfile host="Electron" modified="2023-08-14T13:59:55.593Z" agent="Mozilla/5.0 (Macintosh; Intel Mac OS X 10_15_7) AppleWebKit/537.36 (KHTML, like Gecko) draw.io/21.6.5 Chrome/114.0.5735.243 Electron/25.3.1 Safari/537.36" etag="EQEGeHqUBPZqbQU_FLd8" version="21.6.5" type="device">
  <diagram name="第 1 页" id="E4dIqupAgL9DXsQ2ph4-">
    <mxGraphModel dx="988" dy="578" grid="1" gridSize="10" guides="1" tooltips="1" connect="1" arrows="1" fold="1" page="1" pageScale="1" pageWidth="827" pageHeight="1169" math="0" shadow="0">
      <root>
        <mxCell id="0" />
        <mxCell id="1" parent="0" />
        <mxCell id="e4feeKlr6qVUvJZXgnHf-12" value="" style="rounded=1;whiteSpace=wrap;html=1;dashed=1;" vertex="1" parent="1">
          <mxGeometry x="1040" y="1830" width="340" height="310" as="geometry" />
        </mxCell>
        <mxCell id="e4feeKlr6qVUvJZXgnHf-4" value="" style="rounded=1;whiteSpace=wrap;html=1;dashed=1;" vertex="1" parent="1">
          <mxGeometry x="1136" y="1627" width="128" height="173" as="geometry" />
        </mxCell>
        <mxCell id="izFjJcmxxaOLUsGuapBq-133" style="edgeStyle=orthogonalEdgeStyle;rounded=0;orthogonalLoop=1;jettySize=auto;html=1;exitX=0;exitY=0.25;exitDx=0;exitDy=0;fontFamily=Helvetica;fontSize=12;fontColor=default;" parent="1" source="izFjJcmxxaOLUsGuapBq-100" edge="1">
          <mxGeometry relative="1" as="geometry">
            <mxPoint x="1438.5862068965516" y="2054.793103448276" as="targetPoint" />
            <Array as="points">
              <mxPoint x="1060" y="2190" />
              <mxPoint x="1060" y="2150" />
              <mxPoint x="1439" y="2150" />
            </Array>
          </mxGeometry>
        </mxCell>
        <mxCell id="RuJVp1kDImBfiCBolj24-31" value="" style="rounded=1;whiteSpace=wrap;html=1;dashed=1;opacity=50;fillColor=#f8cecc;strokeColor=#b85450;" parent="1" vertex="1">
          <mxGeometry x="200" y="1211" width="454" height="430" as="geometry" />
        </mxCell>
        <mxCell id="ZP8WuhxRDatKh7qiyKnX-26" value="" style="rounded=1;whiteSpace=wrap;html=1;fillColor=#dae8fc;strokeColor=#6c8ebf;" parent="1" vertex="1">
          <mxGeometry x="233" y="240" width="60" height="160" as="geometry" />
        </mxCell>
        <mxCell id="ZP8WuhxRDatKh7qiyKnX-27" value="" style="rounded=1;whiteSpace=wrap;html=1;fillColor=#d5e8d4;strokeColor=#82b366;" parent="1" vertex="1">
          <mxGeometry x="293" y="240" width="60" height="160" as="geometry" />
        </mxCell>
        <mxCell id="ZP8WuhxRDatKh7qiyKnX-6" style="edgeStyle=orthogonalEdgeStyle;rounded=0;orthogonalLoop=1;jettySize=auto;html=1;exitX=1;exitY=0.25;exitDx=0;exitDy=0;entryX=0;entryY=0.25;entryDx=0;entryDy=0;" parent="1" source="ZP8WuhxRDatKh7qiyKnX-1" target="ZP8WuhxRDatKh7qiyKnX-3" edge="1">
          <mxGeometry relative="1" as="geometry" />
        </mxCell>
        <mxCell id="ZP8WuhxRDatKh7qiyKnX-7" value="sync signals" style="edgeLabel;html=1;align=center;verticalAlign=middle;resizable=0;points=[];" parent="ZP8WuhxRDatKh7qiyKnX-6" vertex="1" connectable="0">
          <mxGeometry x="0.0467" y="-2" relative="1" as="geometry">
            <mxPoint as="offset" />
          </mxGeometry>
        </mxCell>
        <mxCell id="ZP8WuhxRDatKh7qiyKnX-8" style="edgeStyle=orthogonalEdgeStyle;rounded=0;orthogonalLoop=1;jettySize=auto;html=1;exitX=1;exitY=0.75;exitDx=0;exitDy=0;entryX=0;entryY=0.75;entryDx=0;entryDy=0;" parent="1" source="ZP8WuhxRDatKh7qiyKnX-1" target="ZP8WuhxRDatKh7qiyKnX-3" edge="1">
          <mxGeometry relative="1" as="geometry" />
        </mxCell>
        <mxCell id="ZP8WuhxRDatKh7qiyKnX-9" value="rgb signals" style="edgeLabel;html=1;align=center;verticalAlign=middle;resizable=0;points=[];" parent="ZP8WuhxRDatKh7qiyKnX-8" vertex="1" connectable="0">
          <mxGeometry x="-0.1033" relative="1" as="geometry">
            <mxPoint x="7" as="offset" />
          </mxGeometry>
        </mxCell>
        <mxCell id="ZP8WuhxRDatKh7qiyKnX-10" style="edgeStyle=orthogonalEdgeStyle;rounded=0;orthogonalLoop=1;jettySize=auto;html=1;exitX=0;exitY=0.25;exitDx=0;exitDy=0;entryX=1;entryY=0.25;entryDx=0;entryDy=0;" parent="1" source="ZP8WuhxRDatKh7qiyKnX-1" target="ZP8WuhxRDatKh7qiyKnX-2" edge="1">
          <mxGeometry relative="1" as="geometry" />
        </mxCell>
        <mxCell id="ZP8WuhxRDatKh7qiyKnX-11" value="request" style="edgeLabel;html=1;align=center;verticalAlign=middle;resizable=0;points=[];" parent="ZP8WuhxRDatKh7qiyKnX-10" vertex="1" connectable="0">
          <mxGeometry x="0.2533" relative="1" as="geometry">
            <mxPoint x="15" as="offset" />
          </mxGeometry>
        </mxCell>
        <mxCell id="ZP8WuhxRDatKh7qiyKnX-13" style="edgeStyle=orthogonalEdgeStyle;rounded=0;orthogonalLoop=1;jettySize=auto;html=1;exitX=0.75;exitY=0;exitDx=0;exitDy=0;startArrow=classic;startFill=1;endArrow=classic;endFill=1;" parent="1" source="ZP8WuhxRDatKh7qiyKnX-1" edge="1">
          <mxGeometry relative="1" as="geometry">
            <mxPoint x="524" y="200" as="targetPoint" />
          </mxGeometry>
        </mxCell>
        <mxCell id="ZP8WuhxRDatKh7qiyKnX-15" value="reset" style="edgeLabel;html=1;align=center;verticalAlign=middle;resizable=0;points=[];" parent="ZP8WuhxRDatKh7qiyKnX-13" vertex="1" connectable="0">
          <mxGeometry x="0.0624" y="1" relative="1" as="geometry">
            <mxPoint as="offset" />
          </mxGeometry>
        </mxCell>
        <mxCell id="ZP8WuhxRDatKh7qiyKnX-14" style="edgeStyle=orthogonalEdgeStyle;rounded=0;orthogonalLoop=1;jettySize=auto;html=1;exitX=0.25;exitY=0;exitDx=0;exitDy=0;startArrow=classic;startFill=1;endArrow=none;endFill=0;" parent="1" source="ZP8WuhxRDatKh7qiyKnX-1" edge="1">
          <mxGeometry relative="1" as="geometry">
            <mxPoint x="464" y="200" as="targetPoint" />
          </mxGeometry>
        </mxCell>
        <mxCell id="ZP8WuhxRDatKh7qiyKnX-16" value="clk" style="edgeLabel;html=1;align=center;verticalAlign=middle;resizable=0;points=[];" parent="ZP8WuhxRDatKh7qiyKnX-14" vertex="1" connectable="0">
          <mxGeometry x="0.1599" relative="1" as="geometry">
            <mxPoint y="-1" as="offset" />
          </mxGeometry>
        </mxCell>
        <mxCell id="ZP8WuhxRDatKh7qiyKnX-1" value="VGA_Ctrl" style="rounded=0;whiteSpace=wrap;html=1;" parent="1" vertex="1">
          <mxGeometry x="434" y="240" width="120" height="160" as="geometry" />
        </mxCell>
        <mxCell id="ZP8WuhxRDatKh7qiyKnX-4" style="edgeStyle=orthogonalEdgeStyle;rounded=0;orthogonalLoop=1;jettySize=auto;html=1;exitX=1;exitY=0.5;exitDx=0;exitDy=0;entryX=0;entryY=0.5;entryDx=0;entryDy=0;" parent="1" source="ZP8WuhxRDatKh7qiyKnX-2" target="ZP8WuhxRDatKh7qiyKnX-1" edge="1">
          <mxGeometry relative="1" as="geometry" />
        </mxCell>
        <mxCell id="ZP8WuhxRDatKh7qiyKnX-5" value="Data" style="edgeLabel;html=1;align=center;verticalAlign=middle;resizable=0;points=[];" parent="ZP8WuhxRDatKh7qiyKnX-4" vertex="1" connectable="0">
          <mxGeometry x="-0.1525" relative="1" as="geometry">
            <mxPoint as="offset" />
          </mxGeometry>
        </mxCell>
        <mxCell id="ZP8WuhxRDatKh7qiyKnX-2" value="Ping&lt;br&gt;Pong&lt;br&gt;Memory" style="rounded=0;whiteSpace=wrap;html=1;opacity=50;" parent="1" vertex="1">
          <mxGeometry x="233" y="240" width="120" height="160" as="geometry" />
        </mxCell>
        <mxCell id="ZP8WuhxRDatKh7qiyKnX-3" value="Moniter" style="rounded=0;whiteSpace=wrap;html=1;" parent="1" vertex="1">
          <mxGeometry x="674" y="240" width="120" height="160" as="geometry" />
        </mxCell>
        <mxCell id="ZP8WuhxRDatKh7qiyKnX-18" style="edgeStyle=orthogonalEdgeStyle;rounded=0;orthogonalLoop=1;jettySize=auto;html=1;exitX=1;exitY=0.25;exitDx=0;exitDy=0;entryX=0;entryY=0.25;entryDx=0;entryDy=0;" parent="1" source="ZP8WuhxRDatKh7qiyKnX-17" target="ZP8WuhxRDatKh7qiyKnX-2" edge="1">
          <mxGeometry relative="1" as="geometry" />
        </mxCell>
        <mxCell id="ZP8WuhxRDatKh7qiyKnX-20" value="data" style="edgeLabel;html=1;align=center;verticalAlign=middle;resizable=0;points=[];" parent="ZP8WuhxRDatKh7qiyKnX-18" vertex="1" connectable="0">
          <mxGeometry x="-0.13" y="2" relative="1" as="geometry">
            <mxPoint as="offset" />
          </mxGeometry>
        </mxCell>
        <mxCell id="ZP8WuhxRDatKh7qiyKnX-19" style="edgeStyle=orthogonalEdgeStyle;rounded=0;orthogonalLoop=1;jettySize=auto;html=1;exitX=1;exitY=0.75;exitDx=0;exitDy=0;entryX=0;entryY=0.75;entryDx=0;entryDy=0;" parent="1" source="ZP8WuhxRDatKh7qiyKnX-17" target="ZP8WuhxRDatKh7qiyKnX-2" edge="1">
          <mxGeometry relative="1" as="geometry" />
        </mxCell>
        <mxCell id="ZP8WuhxRDatKh7qiyKnX-21" value="addr" style="edgeLabel;html=1;align=center;verticalAlign=middle;resizable=0;points=[];" parent="ZP8WuhxRDatKh7qiyKnX-19" vertex="1" connectable="0">
          <mxGeometry x="-0.1967" relative="1" as="geometry">
            <mxPoint x="6" y="-1" as="offset" />
          </mxGeometry>
        </mxCell>
        <mxCell id="ZP8WuhxRDatKh7qiyKnX-17" value="SoC&lt;br&gt;Core" style="rounded=0;whiteSpace=wrap;html=1;" parent="1" vertex="1">
          <mxGeometry x="33" y="240" width="120" height="160" as="geometry" />
        </mxCell>
        <mxCell id="RuJVp1kDImBfiCBolj24-1" value="RISCV&lt;br&gt;Core" style="rounded=0;whiteSpace=wrap;html=1;fillColor=#dae8fc;strokeColor=#6c8ebf;" parent="1" vertex="1">
          <mxGeometry x="80" y="600" width="120" height="80" as="geometry" />
        </mxCell>
        <mxCell id="RuJVp1kDImBfiCBolj24-2" value="SDRAM&lt;br&gt;Sub&lt;br&gt;System" style="rounded=0;whiteSpace=wrap;html=1;fillColor=#f8cecc;strokeColor=#b85450;" parent="1" vertex="1">
          <mxGeometry x="280" y="600" width="120" height="80" as="geometry" />
        </mxCell>
        <mxCell id="RuJVp1kDImBfiCBolj24-11" style="edgeStyle=orthogonalEdgeStyle;rounded=0;orthogonalLoop=1;jettySize=auto;html=1;exitX=0.25;exitY=0;exitDx=0;exitDy=0;entryX=0.25;entryY=1;entryDx=0;entryDy=0;" parent="1" source="RuJVp1kDImBfiCBolj24-3" target="RuJVp1kDImBfiCBolj24-9" edge="1">
          <mxGeometry relative="1" as="geometry" />
        </mxCell>
        <mxCell id="RuJVp1kDImBfiCBolj24-13" value="rgb" style="edgeLabel;html=1;align=center;verticalAlign=middle;resizable=0;points=[];" parent="RuJVp1kDImBfiCBolj24-11" vertex="1" connectable="0">
          <mxGeometry y="-1" relative="1" as="geometry">
            <mxPoint as="offset" />
          </mxGeometry>
        </mxCell>
        <mxCell id="RuJVp1kDImBfiCBolj24-12" style="edgeStyle=orthogonalEdgeStyle;rounded=0;orthogonalLoop=1;jettySize=auto;html=1;exitX=0.75;exitY=0;exitDx=0;exitDy=0;entryX=0.75;entryY=1;entryDx=0;entryDy=0;" parent="1" source="RuJVp1kDImBfiCBolj24-3" target="RuJVp1kDImBfiCBolj24-9" edge="1">
          <mxGeometry relative="1" as="geometry" />
        </mxCell>
        <mxCell id="RuJVp1kDImBfiCBolj24-14" value="sync" style="edgeLabel;html=1;align=center;verticalAlign=middle;resizable=0;points=[];" parent="RuJVp1kDImBfiCBolj24-12" vertex="1" connectable="0">
          <mxGeometry x="-0.0667" relative="1" as="geometry">
            <mxPoint as="offset" />
          </mxGeometry>
        </mxCell>
        <mxCell id="RuJVp1kDImBfiCBolj24-3" value="VGA&lt;br&gt;Sub&lt;br&gt;System" style="rounded=0;whiteSpace=wrap;html=1;fillColor=#f8cecc;strokeColor=#b85450;" parent="1" vertex="1">
          <mxGeometry x="480" y="600" width="120" height="80" as="geometry" />
        </mxCell>
        <mxCell id="RuJVp1kDImBfiCBolj24-4" value="AXI Bus" style="rounded=0;whiteSpace=wrap;html=1;fillColor=#d5e8d4;strokeColor=#82b366;" parent="1" vertex="1">
          <mxGeometry x="80" y="760" width="520" height="20" as="geometry" />
        </mxCell>
        <mxCell id="RuJVp1kDImBfiCBolj24-6" value="" style="shape=flexArrow;endArrow=classic;startArrow=classic;html=1;rounded=0;fillColor=#f5f5f5;strokeColor=#666666;" parent="1" edge="1">
          <mxGeometry width="100" height="100" relative="1" as="geometry">
            <mxPoint x="139.5" y="760" as="sourcePoint" />
            <mxPoint x="139.5" y="680" as="targetPoint" />
          </mxGeometry>
        </mxCell>
        <mxCell id="RuJVp1kDImBfiCBolj24-7" value="" style="shape=flexArrow;endArrow=classic;startArrow=classic;html=1;rounded=0;fillColor=#f5f5f5;strokeColor=#666666;" parent="1" edge="1">
          <mxGeometry width="100" height="100" relative="1" as="geometry">
            <mxPoint x="339.5" y="760" as="sourcePoint" />
            <mxPoint x="339.5" y="680" as="targetPoint" />
          </mxGeometry>
        </mxCell>
        <mxCell id="RuJVp1kDImBfiCBolj24-8" value="" style="shape=flexArrow;endArrow=classic;startArrow=classic;html=1;rounded=0;fillColor=#f5f5f5;strokeColor=#666666;" parent="1" edge="1">
          <mxGeometry width="100" height="100" relative="1" as="geometry">
            <mxPoint x="539.5" y="760" as="sourcePoint" />
            <mxPoint x="539.5" y="680" as="targetPoint" />
          </mxGeometry>
        </mxCell>
        <mxCell id="RuJVp1kDImBfiCBolj24-9" value="显示器" style="rounded=0;whiteSpace=wrap;html=1;fillColor=#e1d5e7;strokeColor=#9673a6;" parent="1" vertex="1">
          <mxGeometry x="480" y="480" width="120" height="60" as="geometry" />
        </mxCell>
        <mxCell id="RuJVp1kDImBfiCBolj24-27" style="edgeStyle=orthogonalEdgeStyle;rounded=0;orthogonalLoop=1;jettySize=auto;html=1;exitX=1;exitY=0.25;exitDx=0;exitDy=0;" parent="1" source="RuJVp1kDImBfiCBolj24-19" edge="1">
          <mxGeometry relative="1" as="geometry">
            <mxPoint x="694" y="1330.6666666666667" as="targetPoint" />
          </mxGeometry>
        </mxCell>
        <mxCell id="RuJVp1kDImBfiCBolj24-29" value="rgb" style="edgeLabel;html=1;align=center;verticalAlign=middle;resizable=0;points=[];" parent="RuJVp1kDImBfiCBolj24-27" vertex="1" connectable="0">
          <mxGeometry x="-0.1262" y="1" relative="1" as="geometry">
            <mxPoint as="offset" />
          </mxGeometry>
        </mxCell>
        <mxCell id="m5QNzYV6TQo7bTUon-5p-12" style="edgeStyle=orthogonalEdgeStyle;rounded=0;orthogonalLoop=1;jettySize=auto;html=1;exitX=1;exitY=0.5;exitDx=0;exitDy=0;" parent="1" source="RuJVp1kDImBfiCBolj24-19" edge="1">
          <mxGeometry relative="1" as="geometry">
            <mxPoint x="690" y="1410.8139534883721" as="targetPoint" />
          </mxGeometry>
        </mxCell>
        <mxCell id="m5QNzYV6TQo7bTUon-5p-13" value="sync" style="edgeLabel;html=1;align=center;verticalAlign=middle;resizable=0;points=[];" parent="m5QNzYV6TQo7bTUon-5p-12" vertex="1" connectable="0">
          <mxGeometry x="-0.0303" y="1" relative="1" as="geometry">
            <mxPoint as="offset" />
          </mxGeometry>
        </mxCell>
        <mxCell id="RuJVp1kDImBfiCBolj24-19" value="VGA&lt;br&gt;Ctrl" style="rounded=0;whiteSpace=wrap;html=1;" parent="1" vertex="1">
          <mxGeometry x="472" y="1251" width="120" height="320" as="geometry" />
        </mxCell>
        <mxCell id="RuJVp1kDImBfiCBolj24-23" value="data" style="edgeStyle=orthogonalEdgeStyle;rounded=0;orthogonalLoop=1;jettySize=auto;html=1;exitX=1;exitY=0.5;exitDx=0;exitDy=0;entryX=0;entryY=0.25;entryDx=0;entryDy=0;" parent="1" source="RuJVp1kDImBfiCBolj24-21" target="RuJVp1kDImBfiCBolj24-19" edge="1">
          <mxGeometry relative="1" as="geometry" />
        </mxCell>
        <mxCell id="RuJVp1kDImBfiCBolj24-21" value="Frame&lt;br&gt;Buffer" style="rounded=0;whiteSpace=wrap;html=1;" parent="1" vertex="1">
          <mxGeometry x="299" y="1291" width="120" height="80" as="geometry" />
        </mxCell>
        <mxCell id="RuJVp1kDImBfiCBolj24-25" value="Config&lt;br&gt;Register" style="rounded=0;whiteSpace=wrap;html=1;fillColor=#dae8fc;strokeColor=#6c8ebf;" parent="1" vertex="1">
          <mxGeometry x="472" y="1454" width="120" height="80" as="geometry" />
        </mxCell>
        <mxCell id="RuJVp1kDImBfiCBolj24-32" value="AXI" style="rounded=0;whiteSpace=wrap;html=1;fillColor=#d5e8d4;strokeColor=#82b366;" parent="1" vertex="1">
          <mxGeometry x="130" y="1280" width="30" height="120" as="geometry" />
        </mxCell>
        <mxCell id="RuJVp1kDImBfiCBolj24-36" value="VGA&lt;br&gt;Sub&lt;br&gt;System" style="text;html=1;strokeColor=none;fillColor=none;align=center;verticalAlign=middle;whiteSpace=wrap;rounded=0;" parent="1" vertex="1">
          <mxGeometry x="274" y="1221" width="60" height="30" as="geometry" />
        </mxCell>
        <mxCell id="m5QNzYV6TQo7bTUon-5p-1" style="edgeStyle=orthogonalEdgeStyle;rounded=0;orthogonalLoop=1;jettySize=auto;html=1;exitX=0;exitY=0.25;exitDx=0;exitDy=0;entryX=1;entryY=0.25;entryDx=0;entryDy=0;" parent="1" source="RuJVp1kDImBfiCBolj24-38" target="RuJVp1kDImBfiCBolj24-32" edge="1">
          <mxGeometry relative="1" as="geometry" />
        </mxCell>
        <mxCell id="m5QNzYV6TQo7bTUon-5p-3" value="read_addr_channel" style="edgeLabel;html=1;align=center;verticalAlign=middle;resizable=0;points=[];" parent="m5QNzYV6TQo7bTUon-5p-1" vertex="1" connectable="0">
          <mxGeometry x="0.2236" relative="1" as="geometry">
            <mxPoint x="9" as="offset" />
          </mxGeometry>
        </mxCell>
        <mxCell id="m5QNzYV6TQo7bTUon-5p-2" style="edgeStyle=orthogonalEdgeStyle;rounded=0;orthogonalLoop=1;jettySize=auto;html=1;exitX=0;exitY=0.5;exitDx=0;exitDy=0;startArrow=classic;startFill=1;endArrow=none;endFill=0;" parent="1" source="RuJVp1kDImBfiCBolj24-38" edge="1">
          <mxGeometry relative="1" as="geometry">
            <mxPoint x="160" y="1331" as="targetPoint" />
          </mxGeometry>
        </mxCell>
        <mxCell id="m5QNzYV6TQo7bTUon-5p-4" value="read_data_channel" style="edgeLabel;html=1;align=center;verticalAlign=middle;resizable=0;points=[];" parent="m5QNzYV6TQo7bTUon-5p-2" vertex="1" connectable="0">
          <mxGeometry x="0.3219" y="-1" relative="1" as="geometry">
            <mxPoint x="17" as="offset" />
          </mxGeometry>
        </mxCell>
        <mxCell id="RuJVp1kDImBfiCBolj24-38" value="" style="rounded=1;whiteSpace=wrap;html=1;fillColor=#d5e8d4;strokeColor=#82b366;opacity=40;" parent="1" vertex="1">
          <mxGeometry x="299" y="1291" width="60" height="80" as="geometry" />
        </mxCell>
        <mxCell id="RuJVp1kDImBfiCBolj24-59" style="edgeStyle=orthogonalEdgeStyle;rounded=0;orthogonalLoop=1;jettySize=auto;html=1;exitX=1;exitY=0.75;exitDx=0;exitDy=0;entryX=0.015;entryY=0.314;entryDx=0;entryDy=0;entryPerimeter=0;endArrow=none;endFill=0;startArrow=classic;startFill=1;" parent="1" source="RuJVp1kDImBfiCBolj24-40" target="RuJVp1kDImBfiCBolj24-19" edge="1">
          <mxGeometry relative="1" as="geometry" />
        </mxCell>
        <mxCell id="RuJVp1kDImBfiCBolj24-60" value="addr" style="edgeLabel;html=1;align=center;verticalAlign=middle;resizable=0;points=[];" parent="RuJVp1kDImBfiCBolj24-59" vertex="1" connectable="0">
          <mxGeometry x="-0.0499" y="1" relative="1" as="geometry">
            <mxPoint as="offset" />
          </mxGeometry>
        </mxCell>
        <mxCell id="RuJVp1kDImBfiCBolj24-40" value="" style="rounded=1;whiteSpace=wrap;html=1;fillColor=#dae8fc;strokeColor=#6c8ebf;opacity=40;" parent="1" vertex="1">
          <mxGeometry x="359" y="1291" width="60" height="80" as="geometry" />
        </mxCell>
        <mxCell id="RuJVp1kDImBfiCBolj24-41" value="SoC&lt;br&gt;Core" style="rounded=0;whiteSpace=wrap;html=1;" parent="1" vertex="1">
          <mxGeometry x="39" y="10" width="120" height="160" as="geometry" />
        </mxCell>
        <mxCell id="RuJVp1kDImBfiCBolj24-42" value="RAM" style="rounded=0;whiteSpace=wrap;html=1;fillColor=#f8cecc;strokeColor=#b85450;" parent="1" vertex="1">
          <mxGeometry x="239" y="10" width="120" height="160" as="geometry" />
        </mxCell>
        <mxCell id="RuJVp1kDImBfiCBolj24-43" value="VGA" style="rounded=0;whiteSpace=wrap;html=1;" parent="1" vertex="1">
          <mxGeometry x="440" y="10" width="120" height="160" as="geometry" />
        </mxCell>
        <mxCell id="RuJVp1kDImBfiCBolj24-44" value="" style="shape=flexArrow;endArrow=classic;html=1;rounded=0;entryX=0;entryY=0.5;entryDx=0;entryDy=0;" parent="1" target="RuJVp1kDImBfiCBolj24-43" edge="1">
          <mxGeometry width="50" height="50" relative="1" as="geometry">
            <mxPoint x="360" y="90" as="sourcePoint" />
            <mxPoint x="434" y="89.66" as="targetPoint" />
          </mxGeometry>
        </mxCell>
        <mxCell id="RuJVp1kDImBfiCBolj24-45" value="" style="shape=flexArrow;endArrow=classic;startArrow=classic;html=1;rounded=0;" parent="1" edge="1">
          <mxGeometry width="100" height="100" relative="1" as="geometry">
            <mxPoint x="159" y="89.66" as="sourcePoint" />
            <mxPoint x="239" y="89.66" as="targetPoint" />
          </mxGeometry>
        </mxCell>
        <mxCell id="izFjJcmxxaOLUsGuapBq-108" style="edgeStyle=orthogonalEdgeStyle;rounded=0;orthogonalLoop=1;jettySize=auto;html=1;exitX=0;exitY=0.5;exitDx=0;exitDy=0;entryX=1.063;entryY=0.136;entryDx=0;entryDy=0;entryPerimeter=0;startArrow=classic;startFill=1;endArrow=none;endFill=0;" parent="1" source="Cshjxy_LdJswH7RglqTx-67" target="Cshjxy_LdJswH7RglqTx-86" edge="1">
          <mxGeometry relative="1" as="geometry" />
        </mxCell>
        <mxCell id="izFjJcmxxaOLUsGuapBq-109" style="edgeStyle=orthogonalEdgeStyle;rounded=0;orthogonalLoop=1;jettySize=auto;html=1;exitX=0;exitY=0.5;exitDx=0;exitDy=0;entryX=1.063;entryY=0.137;entryDx=0;entryDy=0;entryPerimeter=0;startArrow=classic;startFill=1;endArrow=none;endFill=0;" parent="1" source="Cshjxy_LdJswH7RglqTx-68" target="Cshjxy_LdJswH7RglqTx-86" edge="1">
          <mxGeometry relative="1" as="geometry" />
        </mxCell>
        <mxCell id="izFjJcmxxaOLUsGuapBq-110" value="data channel" style="edgeLabel;html=1;align=center;verticalAlign=middle;resizable=0;points=[];" parent="izFjJcmxxaOLUsGuapBq-109" vertex="1" connectable="0">
          <mxGeometry x="0.8166" y="-1" relative="1" as="geometry">
            <mxPoint x="15" as="offset" />
          </mxGeometry>
        </mxCell>
        <mxCell id="Cshjxy_LdJswH7RglqTx-74" value="" style="group;points=[[0.41,0.58,0,0,0],[0.69,0.36,0,0,0]];" parent="1" vertex="1" connectable="0">
          <mxGeometry x="1401" y="1870" width="120" height="200" as="geometry" />
        </mxCell>
        <mxCell id="Cshjxy_LdJswH7RglqTx-69" value="" style="endArrow=none;html=1;rounded=0;" parent="Cshjxy_LdJswH7RglqTx-74" edge="1">
          <mxGeometry width="50" height="50" relative="1" as="geometry">
            <mxPoint y="200" as="sourcePoint" />
            <mxPoint as="targetPoint" />
          </mxGeometry>
        </mxCell>
        <mxCell id="Cshjxy_LdJswH7RglqTx-70" value="" style="endArrow=none;html=1;rounded=0;" parent="Cshjxy_LdJswH7RglqTx-74" edge="1">
          <mxGeometry width="50" height="50" relative="1" as="geometry">
            <mxPoint as="sourcePoint" />
            <mxPoint x="120" y="40" as="targetPoint" />
          </mxGeometry>
        </mxCell>
        <mxCell id="Cshjxy_LdJswH7RglqTx-71" value="" style="endArrow=none;html=1;rounded=0;" parent="Cshjxy_LdJswH7RglqTx-74" edge="1">
          <mxGeometry width="50" height="50" relative="1" as="geometry">
            <mxPoint y="200" as="sourcePoint" />
            <mxPoint x="120" y="160" as="targetPoint" />
          </mxGeometry>
        </mxCell>
        <mxCell id="Cshjxy_LdJswH7RglqTx-72" value="" style="endArrow=none;html=1;rounded=0;" parent="Cshjxy_LdJswH7RglqTx-74" edge="1">
          <mxGeometry width="50" height="50" relative="1" as="geometry">
            <mxPoint x="120" y="160" as="sourcePoint" />
            <mxPoint x="120" y="40" as="targetPoint" />
          </mxGeometry>
        </mxCell>
        <mxCell id="Cshjxy_LdJswH7RglqTx-75" value="Mux" style="text;html=1;align=center;verticalAlign=middle;resizable=0;points=[];autosize=1;strokeColor=none;fillColor=none;" parent="Cshjxy_LdJswH7RglqTx-74" vertex="1">
          <mxGeometry x="35" y="85" width="50" height="30" as="geometry" />
        </mxCell>
        <mxCell id="izFjJcmxxaOLUsGuapBq-126" value="" style="endArrow=classic;html=1;rounded=0;fontFamily=Helvetica;fontSize=12;fontColor=default;" parent="Cshjxy_LdJswH7RglqTx-74" edge="1">
          <mxGeometry width="50" height="50" relative="1" as="geometry">
            <mxPoint x="119" y="100" as="sourcePoint" />
            <mxPoint x="199" y="100" as="targetPoint" />
          </mxGeometry>
        </mxCell>
        <mxCell id="izFjJcmxxaOLUsGuapBq-127" value="data[15:0]" style="edgeLabel;html=1;align=center;verticalAlign=middle;resizable=0;points=[];fontSize=12;fontFamily=Helvetica;fontColor=default;" parent="izFjJcmxxaOLUsGuapBq-126" vertex="1" connectable="0">
          <mxGeometry x="-0.1042" y="2" relative="1" as="geometry">
            <mxPoint as="offset" />
          </mxGeometry>
        </mxCell>
        <mxCell id="Cshjxy_LdJswH7RglqTx-86" value="AXI" style="rounded=0;whiteSpace=wrap;html=1;fillColor=#d5e8d4;strokeColor=#82b366;" parent="1" vertex="1">
          <mxGeometry x="881" y="1840" width="21" height="440" as="geometry" />
        </mxCell>
        <mxCell id="izFjJcmxxaOLUsGuapBq-1" value="" style="rounded=1;whiteSpace=wrap;html=1;dashed=1;opacity=50;fillColor=#f8cecc;strokeColor=#b85450;" parent="1" vertex="1">
          <mxGeometry x="200" y="1730" width="454" height="430" as="geometry" />
        </mxCell>
        <mxCell id="izFjJcmxxaOLUsGuapBq-2" style="edgeStyle=orthogonalEdgeStyle;rounded=0;orthogonalLoop=1;jettySize=auto;html=1;exitX=1;exitY=0.25;exitDx=0;exitDy=0;" parent="1" source="izFjJcmxxaOLUsGuapBq-6" edge="1">
          <mxGeometry relative="1" as="geometry">
            <mxPoint x="694" y="1849.6666666666667" as="targetPoint" />
          </mxGeometry>
        </mxCell>
        <mxCell id="izFjJcmxxaOLUsGuapBq-3" value="rgb" style="edgeLabel;html=1;align=center;verticalAlign=middle;resizable=0;points=[];" parent="izFjJcmxxaOLUsGuapBq-2" vertex="1" connectable="0">
          <mxGeometry x="-0.1262" y="1" relative="1" as="geometry">
            <mxPoint as="offset" />
          </mxGeometry>
        </mxCell>
        <mxCell id="izFjJcmxxaOLUsGuapBq-4" style="edgeStyle=orthogonalEdgeStyle;rounded=0;orthogonalLoop=1;jettySize=auto;html=1;exitX=1;exitY=0.75;exitDx=0;exitDy=0;" parent="1" source="izFjJcmxxaOLUsGuapBq-6" edge="1">
          <mxGeometry relative="1" as="geometry">
            <mxPoint x="694" y="2009.6666666666667" as="targetPoint" />
          </mxGeometry>
        </mxCell>
        <mxCell id="izFjJcmxxaOLUsGuapBq-5" value="sync" style="edgeLabel;html=1;align=center;verticalAlign=middle;resizable=0;points=[];" parent="izFjJcmxxaOLUsGuapBq-4" vertex="1" connectable="0">
          <mxGeometry x="-0.1678" relative="1" as="geometry">
            <mxPoint as="offset" />
          </mxGeometry>
        </mxCell>
        <mxCell id="izFjJcmxxaOLUsGuapBq-6" value="VGA&lt;br&gt;Ctrl" style="rounded=0;whiteSpace=wrap;html=1;fillColor=#e1d5e7;strokeColor=#9673a6;" parent="1" vertex="1">
          <mxGeometry x="472" y="1770" width="120" height="320" as="geometry" />
        </mxCell>
        <mxCell id="izFjJcmxxaOLUsGuapBq-7" value="data" style="edgeStyle=orthogonalEdgeStyle;rounded=0;orthogonalLoop=1;jettySize=auto;html=1;exitX=1;exitY=0.5;exitDx=0;exitDy=0;entryX=0;entryY=0.25;entryDx=0;entryDy=0;" parent="1" source="izFjJcmxxaOLUsGuapBq-8" target="izFjJcmxxaOLUsGuapBq-6" edge="1">
          <mxGeometry relative="1" as="geometry" />
        </mxCell>
        <mxCell id="izFjJcmxxaOLUsGuapBq-8" value="" style="rounded=0;whiteSpace=wrap;html=1;" parent="1" vertex="1">
          <mxGeometry x="299" y="1810" width="120" height="80" as="geometry" />
        </mxCell>
        <mxCell id="izFjJcmxxaOLUsGuapBq-28" style="edgeStyle=orthogonalEdgeStyle;rounded=0;orthogonalLoop=1;jettySize=auto;html=1;exitX=1;exitY=0.5;exitDx=0;exitDy=0;entryX=0.018;entryY=0.763;entryDx=0;entryDy=0;entryPerimeter=0;" parent="1" source="izFjJcmxxaOLUsGuapBq-13" target="izFjJcmxxaOLUsGuapBq-6" edge="1">
          <mxGeometry relative="1" as="geometry" />
        </mxCell>
        <mxCell id="m5QNzYV6TQo7bTUon-5p-21" style="edgeStyle=orthogonalEdgeStyle;rounded=0;orthogonalLoop=1;jettySize=auto;html=1;exitX=0;exitY=0.75;exitDx=0;exitDy=0;entryX=1.026;entryY=0.671;entryDx=0;entryDy=0;entryPerimeter=0;" parent="1" source="izFjJcmxxaOLUsGuapBq-13" target="m5QNzYV6TQo7bTUon-5p-19" edge="1">
          <mxGeometry relative="1" as="geometry" />
        </mxCell>
        <mxCell id="m5QNzYV6TQo7bTUon-5p-23" value="apb_response" style="edgeLabel;html=1;align=center;verticalAlign=middle;resizable=0;points=[];" parent="m5QNzYV6TQo7bTUon-5p-21" vertex="1" connectable="0">
          <mxGeometry x="0.3369" y="-1" relative="1" as="geometry">
            <mxPoint x="9" as="offset" />
          </mxGeometry>
        </mxCell>
        <mxCell id="izFjJcmxxaOLUsGuapBq-13" value="Config&lt;br&gt;Register" style="rounded=0;whiteSpace=wrap;html=1;fillColor=#dae8fc;strokeColor=#6c8ebf;" parent="1" vertex="1">
          <mxGeometry x="299" y="1974" width="120" height="80" as="geometry" />
        </mxCell>
        <mxCell id="m5QNzYV6TQo7bTUon-5p-16" style="edgeStyle=orthogonalEdgeStyle;rounded=0;orthogonalLoop=1;jettySize=auto;html=1;exitX=1;exitY=0.5;exitDx=0;exitDy=0;entryX=0;entryY=0.25;entryDx=0;entryDy=0;" parent="1" source="izFjJcmxxaOLUsGuapBq-18" target="izFjJcmxxaOLUsGuapBq-27" edge="1">
          <mxGeometry relative="1" as="geometry" />
        </mxCell>
        <mxCell id="m5QNzYV6TQo7bTUon-5p-18" value="read_data_channel" style="edgeLabel;html=1;align=center;verticalAlign=middle;resizable=0;points=[];" parent="m5QNzYV6TQo7bTUon-5p-16" vertex="1" connectable="0">
          <mxGeometry x="-0.2829" relative="1" as="geometry">
            <mxPoint x="15" as="offset" />
          </mxGeometry>
        </mxCell>
        <mxCell id="izFjJcmxxaOLUsGuapBq-18" value="AXI" style="rounded=0;whiteSpace=wrap;html=1;fillColor=#d5e8d4;strokeColor=#82b366;" parent="1" vertex="1">
          <mxGeometry x="130" y="1800" width="25" height="120" as="geometry" />
        </mxCell>
        <mxCell id="izFjJcmxxaOLUsGuapBq-19" value="VGA&lt;br&gt;Sub&lt;br&gt;System" style="text;html=1;strokeColor=none;fillColor=none;align=center;verticalAlign=middle;whiteSpace=wrap;rounded=0;" parent="1" vertex="1">
          <mxGeometry x="274" y="1740" width="60" height="30" as="geometry" />
        </mxCell>
        <mxCell id="izFjJcmxxaOLUsGuapBq-23" style="edgeStyle=orthogonalEdgeStyle;rounded=0;orthogonalLoop=1;jettySize=auto;html=1;exitX=1;exitY=0.75;exitDx=0;exitDy=0;entryX=0.015;entryY=0.314;entryDx=0;entryDy=0;entryPerimeter=0;endArrow=none;endFill=0;startArrow=classic;startFill=1;" parent="1" target="izFjJcmxxaOLUsGuapBq-6" edge="1">
          <mxGeometry relative="1" as="geometry">
            <mxPoint x="419" y="1870" as="sourcePoint" />
          </mxGeometry>
        </mxCell>
        <mxCell id="izFjJcmxxaOLUsGuapBq-24" value="addr" style="edgeLabel;html=1;align=center;verticalAlign=middle;resizable=0;points=[];" parent="izFjJcmxxaOLUsGuapBq-23" vertex="1" connectable="0">
          <mxGeometry x="-0.0499" y="1" relative="1" as="geometry">
            <mxPoint as="offset" />
          </mxGeometry>
        </mxCell>
        <mxCell id="m5QNzYV6TQo7bTUon-5p-14" style="edgeStyle=orthogonalEdgeStyle;rounded=0;orthogonalLoop=1;jettySize=auto;html=1;exitX=0;exitY=0.5;exitDx=0;exitDy=0;entryX=1;entryY=0.25;entryDx=0;entryDy=0;" parent="1" source="izFjJcmxxaOLUsGuapBq-26" target="izFjJcmxxaOLUsGuapBq-18" edge="1">
          <mxGeometry relative="1" as="geometry" />
        </mxCell>
        <mxCell id="m5QNzYV6TQo7bTUon-5p-17" value="read_addr_channel" style="edgeLabel;html=1;align=center;verticalAlign=middle;resizable=0;points=[];" parent="m5QNzYV6TQo7bTUon-5p-14" vertex="1" connectable="0">
          <mxGeometry x="0.0891" y="-1" relative="1" as="geometry">
            <mxPoint as="offset" />
          </mxGeometry>
        </mxCell>
        <mxCell id="izFjJcmxxaOLUsGuapBq-26" value="register group 1" style="rounded=1;whiteSpace=wrap;html=1;fillColor=#ffe6cc;strokeColor=#d79b00;" parent="1" vertex="1">
          <mxGeometry x="299" y="1810" width="120" height="40" as="geometry" />
        </mxCell>
        <mxCell id="izFjJcmxxaOLUsGuapBq-27" value="register group 2" style="rounded=1;whiteSpace=wrap;html=1;fillColor=#dae8fc;strokeColor=#6c8ebf;" parent="1" vertex="1">
          <mxGeometry x="299" y="1850" width="120" height="40" as="geometry" />
        </mxCell>
        <mxCell id="izFjJcmxxaOLUsGuapBq-39" value="" style="group" parent="1" vertex="1" connectable="0">
          <mxGeometry x="1160" y="1440" width="160" height="160" as="geometry" />
        </mxCell>
        <mxCell id="izFjJcmxxaOLUsGuapBq-65" style="edgeStyle=orthogonalEdgeStyle;rounded=0;orthogonalLoop=1;jettySize=auto;html=1;exitX=1;exitY=0.5;exitDx=0;exitDy=0;" parent="izFjJcmxxaOLUsGuapBq-39" source="Cshjxy_LdJswH7RglqTx-49" edge="1">
          <mxGeometry relative="1" as="geometry">
            <mxPoint x="240" y="20.14285714285711" as="targetPoint" />
          </mxGeometry>
        </mxCell>
        <mxCell id="Cshjxy_LdJswH7RglqTx-49" value="320x240" style="rounded=0;whiteSpace=wrap;html=1;fillColor=#f8cecc;strokeColor=#b85450;" parent="izFjJcmxxaOLUsGuapBq-39" vertex="1">
          <mxGeometry width="160" height="40" as="geometry" />
        </mxCell>
        <mxCell id="izFjJcmxxaOLUsGuapBq-66" style="edgeStyle=orthogonalEdgeStyle;rounded=0;orthogonalLoop=1;jettySize=auto;html=1;exitX=1;exitY=0.5;exitDx=0;exitDy=0;" parent="izFjJcmxxaOLUsGuapBq-39" source="Cshjxy_LdJswH7RglqTx-51" edge="1">
          <mxGeometry relative="1" as="geometry">
            <mxPoint x="240" y="60.14285714285711" as="targetPoint" />
          </mxGeometry>
        </mxCell>
        <mxCell id="Cshjxy_LdJswH7RglqTx-51" value="480x272" style="rounded=0;whiteSpace=wrap;html=1;fillColor=#f8cecc;strokeColor=#b85450;" parent="izFjJcmxxaOLUsGuapBq-39" vertex="1">
          <mxGeometry y="40" width="160" height="40" as="geometry" />
        </mxCell>
        <mxCell id="izFjJcmxxaOLUsGuapBq-67" style="edgeStyle=orthogonalEdgeStyle;rounded=0;orthogonalLoop=1;jettySize=auto;html=1;exitX=1;exitY=0.5;exitDx=0;exitDy=0;" parent="izFjJcmxxaOLUsGuapBq-39" source="Cshjxy_LdJswH7RglqTx-53" edge="1">
          <mxGeometry relative="1" as="geometry">
            <mxPoint x="240" y="100.14285714285711" as="targetPoint" />
          </mxGeometry>
        </mxCell>
        <mxCell id="Cshjxy_LdJswH7RglqTx-53" value="640x480" style="rounded=0;whiteSpace=wrap;html=1;fillColor=#f8cecc;strokeColor=#b85450;" parent="izFjJcmxxaOLUsGuapBq-39" vertex="1">
          <mxGeometry y="80" width="160" height="40" as="geometry" />
        </mxCell>
        <mxCell id="izFjJcmxxaOLUsGuapBq-68" style="edgeStyle=orthogonalEdgeStyle;rounded=0;orthogonalLoop=1;jettySize=auto;html=1;exitX=1;exitY=0.5;exitDx=0;exitDy=0;" parent="izFjJcmxxaOLUsGuapBq-39" source="izFjJcmxxaOLUsGuapBq-35" edge="1">
          <mxGeometry relative="1" as="geometry">
            <mxPoint x="240" y="140.1428571428571" as="targetPoint" />
          </mxGeometry>
        </mxCell>
        <mxCell id="izFjJcmxxaOLUsGuapBq-35" value="800x600" style="rounded=0;whiteSpace=wrap;html=1;fillColor=#f8cecc;strokeColor=#b85450;" parent="izFjJcmxxaOLUsGuapBq-39" vertex="1">
          <mxGeometry y="120" width="160" height="40" as="geometry" />
        </mxCell>
        <mxCell id="izFjJcmxxaOLUsGuapBq-69" style="edgeStyle=orthogonalEdgeStyle;rounded=0;orthogonalLoop=1;jettySize=auto;html=1;exitX=1;exitY=0.5;exitDx=0;exitDy=0;" parent="1" source="izFjJcmxxaOLUsGuapBq-46" edge="1">
          <mxGeometry relative="1" as="geometry">
            <mxPoint x="1560" y="1700" as="targetPoint" />
          </mxGeometry>
        </mxCell>
        <mxCell id="izFjJcmxxaOLUsGuapBq-72" value="base_addr" style="edgeLabel;html=1;align=center;verticalAlign=middle;resizable=0;points=[];" parent="izFjJcmxxaOLUsGuapBq-69" vertex="1" connectable="0">
          <mxGeometry x="0.4366" relative="1" as="geometry">
            <mxPoint x="15" y="-1" as="offset" />
          </mxGeometry>
        </mxCell>
        <mxCell id="izFjJcmxxaOLUsGuapBq-46" value="BaseAddrHigh" style="rounded=0;whiteSpace=wrap;html=1;fillColor=#d5e8d4;strokeColor=#82b366;" parent="1" vertex="1">
          <mxGeometry x="1160" y="1680" width="80" height="40" as="geometry" />
        </mxCell>
        <mxCell id="izFjJcmxxaOLUsGuapBq-59" value="" style="group" parent="1" vertex="1" connectable="0">
          <mxGeometry x="1400" y="1450" width="70" height="140" as="geometry" />
        </mxCell>
        <mxCell id="izFjJcmxxaOLUsGuapBq-60" value="" style="endArrow=none;html=1;rounded=0;" parent="izFjJcmxxaOLUsGuapBq-59" edge="1">
          <mxGeometry width="50" height="50" relative="1" as="geometry">
            <mxPoint y="140" as="sourcePoint" />
            <mxPoint as="targetPoint" />
          </mxGeometry>
        </mxCell>
        <mxCell id="izFjJcmxxaOLUsGuapBq-61" value="" style="endArrow=none;html=1;rounded=0;" parent="izFjJcmxxaOLUsGuapBq-59" edge="1">
          <mxGeometry width="50" height="50" relative="1" as="geometry">
            <mxPoint as="sourcePoint" />
            <mxPoint x="70" y="28" as="targetPoint" />
          </mxGeometry>
        </mxCell>
        <mxCell id="izFjJcmxxaOLUsGuapBq-62" value="" style="endArrow=none;html=1;rounded=0;" parent="izFjJcmxxaOLUsGuapBq-59" edge="1">
          <mxGeometry width="50" height="50" relative="1" as="geometry">
            <mxPoint y="140" as="sourcePoint" />
            <mxPoint x="70" y="112" as="targetPoint" />
          </mxGeometry>
        </mxCell>
        <mxCell id="izFjJcmxxaOLUsGuapBq-63" value="" style="endArrow=none;html=1;rounded=0;" parent="izFjJcmxxaOLUsGuapBq-59" edge="1">
          <mxGeometry width="50" height="50" relative="1" as="geometry">
            <mxPoint x="70" y="112" as="sourcePoint" />
            <mxPoint x="70" y="28" as="targetPoint" />
          </mxGeometry>
        </mxCell>
        <mxCell id="izFjJcmxxaOLUsGuapBq-70" value="" style="endArrow=classic;html=1;rounded=0;" parent="1" edge="1">
          <mxGeometry width="50" height="50" relative="1" as="geometry">
            <mxPoint x="1470" y="1520" as="sourcePoint" />
            <mxPoint x="1560" y="1520" as="targetPoint" />
          </mxGeometry>
        </mxCell>
        <mxCell id="izFjJcmxxaOLUsGuapBq-71" value="resolution" style="edgeLabel;html=1;align=center;verticalAlign=middle;resizable=0;points=[];" parent="izFjJcmxxaOLUsGuapBq-70" vertex="1" connectable="0">
          <mxGeometry x="-0.2095" y="2" relative="1" as="geometry">
            <mxPoint as="offset" />
          </mxGeometry>
        </mxCell>
        <mxCell id="izFjJcmxxaOLUsGuapBq-74" style="edgeStyle=orthogonalEdgeStyle;rounded=0;orthogonalLoop=1;jettySize=auto;html=1;exitX=1;exitY=0.5;exitDx=0;exitDy=0;" parent="1" source="izFjJcmxxaOLUsGuapBq-73" edge="1">
          <mxGeometry relative="1" as="geometry">
            <mxPoint x="1440" y="1569.9999999999998" as="targetPoint" />
          </mxGeometry>
        </mxCell>
        <mxCell id="izFjJcmxxaOLUsGuapBq-73" value="resolution" style="rounded=0;whiteSpace=wrap;html=1;fillColor=#d5e8d4;strokeColor=#82b366;" parent="1" vertex="1">
          <mxGeometry x="1160" y="1640" width="80" height="40" as="geometry" />
        </mxCell>
        <mxCell id="izFjJcmxxaOLUsGuapBq-75" value="APB" style="rounded=0;whiteSpace=wrap;html=1;" parent="1" vertex="1">
          <mxGeometry x="1040" y="1600" width="30" height="160" as="geometry" />
        </mxCell>
        <mxCell id="izFjJcmxxaOLUsGuapBq-77" value="" style="shape=flexArrow;endArrow=classic;html=1;rounded=0;exitX=1;exitY=0.5;exitDx=0;exitDy=0;" parent="1" source="izFjJcmxxaOLUsGuapBq-75" edge="1">
          <mxGeometry width="50" height="50" relative="1" as="geometry">
            <mxPoint x="1110" y="1730" as="sourcePoint" />
            <mxPoint x="1160" y="1680" as="targetPoint" />
          </mxGeometry>
        </mxCell>
        <mxCell id="izFjJcmxxaOLUsGuapBq-79" value="resolution_config_register" style="rounded=0;whiteSpace=wrap;html=1;fillColor=#ffe6cc;strokeColor=#d79b00;" parent="1" vertex="1">
          <mxGeometry x="920" y="1200" width="640" height="40" as="geometry" />
        </mxCell>
        <mxCell id="izFjJcmxxaOLUsGuapBq-84" value="36:27" style="rounded=0;whiteSpace=wrap;html=1;fillColor=#d5e8d4;strokeColor=#82b366;" parent="1" vertex="1">
          <mxGeometry x="1240" y="1240" width="80" height="40" as="geometry" />
        </mxCell>
        <mxCell id="izFjJcmxxaOLUsGuapBq-85" value="26:19" style="rounded=0;whiteSpace=wrap;html=1;fillColor=#dae8fc;strokeColor=#6c8ebf;" parent="1" vertex="1">
          <mxGeometry x="1320" y="1240" width="80" height="40" as="geometry" />
        </mxCell>
        <mxCell id="izFjJcmxxaOLUsGuapBq-86" value="18:11" style="rounded=0;whiteSpace=wrap;html=1;fillColor=#d5e8d4;strokeColor=#82b366;" parent="1" vertex="1">
          <mxGeometry x="1400" y="1240" width="80" height="40" as="geometry" />
        </mxCell>
        <mxCell id="izFjJcmxxaOLUsGuapBq-87" value="10:0" style="rounded=0;whiteSpace=wrap;html=1;fillColor=#dae8fc;strokeColor=#6c8ebf;" parent="1" vertex="1">
          <mxGeometry x="1480" y="1240" width="80" height="40" as="geometry" />
        </mxCell>
        <mxCell id="izFjJcmxxaOLUsGuapBq-88" value="&amp;nbsp;62:54" style="rounded=0;whiteSpace=wrap;html=1;fillColor=#d5e8d4;strokeColor=#82b366;" parent="1" vertex="1">
          <mxGeometry x="920" y="1240" width="80" height="40" as="geometry" />
        </mxCell>
        <mxCell id="izFjJcmxxaOLUsGuapBq-89" value="53:49" style="rounded=0;whiteSpace=wrap;html=1;fillColor=#dae8fc;strokeColor=#6c8ebf;" parent="1" vertex="1">
          <mxGeometry x="1000" y="1240" width="80" height="40" as="geometry" />
        </mxCell>
        <mxCell id="izFjJcmxxaOLUsGuapBq-90" value="48:46" style="rounded=0;whiteSpace=wrap;html=1;fillColor=#d5e8d4;strokeColor=#82b366;" parent="1" vertex="1">
          <mxGeometry x="1080" y="1240" width="80" height="40" as="geometry" />
        </mxCell>
        <mxCell id="izFjJcmxxaOLUsGuapBq-91" value="45:37" style="rounded=0;whiteSpace=wrap;html=1;fillColor=#dae8fc;strokeColor=#6c8ebf;" parent="1" vertex="1">
          <mxGeometry x="1160" y="1240" width="80" height="40" as="geometry" />
        </mxCell>
        <mxCell id="izFjJcmxxaOLUsGuapBq-92" value="Hdata_End" style="rounded=0;whiteSpace=wrap;html=1;fillColor=#d5e8d4;strokeColor=#82b366;" parent="1" vertex="1">
          <mxGeometry x="1240" y="1280" width="80" height="40" as="geometry" />
        </mxCell>
        <mxCell id="izFjJcmxxaOLUsGuapBq-93" value="Hdata_Begin" style="rounded=0;whiteSpace=wrap;html=1;fillColor=#dae8fc;strokeColor=#6c8ebf;" parent="1" vertex="1">
          <mxGeometry x="1320" y="1280" width="80" height="40" as="geometry" />
        </mxCell>
        <mxCell id="izFjJcmxxaOLUsGuapBq-94" value="Hpulse_End" style="rounded=0;whiteSpace=wrap;html=1;fillColor=#d5e8d4;strokeColor=#82b366;" parent="1" vertex="1">
          <mxGeometry x="1400" y="1280" width="80" height="40" as="geometry" />
        </mxCell>
        <mxCell id="izFjJcmxxaOLUsGuapBq-95" value="Hsync_End" style="rounded=0;whiteSpace=wrap;html=1;fillColor=#dae8fc;strokeColor=#6c8ebf;" parent="1" vertex="1">
          <mxGeometry x="1480" y="1280" width="80" height="40" as="geometry" />
        </mxCell>
        <mxCell id="izFjJcmxxaOLUsGuapBq-96" value="Vdata_End" style="rounded=0;whiteSpace=wrap;html=1;fillColor=#d5e8d4;strokeColor=#82b366;" parent="1" vertex="1">
          <mxGeometry x="920" y="1280" width="80" height="40" as="geometry" />
        </mxCell>
        <mxCell id="izFjJcmxxaOLUsGuapBq-97" value="Vdata_Begin" style="rounded=0;whiteSpace=wrap;html=1;fillColor=#dae8fc;strokeColor=#6c8ebf;" parent="1" vertex="1">
          <mxGeometry x="1000" y="1280" width="80" height="40" as="geometry" />
        </mxCell>
        <mxCell id="izFjJcmxxaOLUsGuapBq-98" value="Vpulse_End" style="rounded=0;whiteSpace=wrap;html=1;fillColor=#d5e8d4;strokeColor=#82b366;" parent="1" vertex="1">
          <mxGeometry x="1080" y="1280" width="80" height="40" as="geometry" />
        </mxCell>
        <mxCell id="izFjJcmxxaOLUsGuapBq-99" value="Vsync_End" style="rounded=0;whiteSpace=wrap;html=1;fillColor=#dae8fc;strokeColor=#6c8ebf;" parent="1" vertex="1">
          <mxGeometry x="1160" y="1280" width="80" height="40" as="geometry" />
        </mxCell>
        <mxCell id="izFjJcmxxaOLUsGuapBq-104" style="edgeStyle=orthogonalEdgeStyle;rounded=0;orthogonalLoop=1;jettySize=auto;html=1;exitX=0;exitY=0.5;exitDx=0;exitDy=0;entryX=1.103;entryY=0.863;entryDx=0;entryDy=0;entryPerimeter=0;" parent="1" source="izFjJcmxxaOLUsGuapBq-100" target="Cshjxy_LdJswH7RglqTx-86" edge="1">
          <mxGeometry relative="1" as="geometry" />
        </mxCell>
        <mxCell id="izFjJcmxxaOLUsGuapBq-107" value="address channel" style="edgeLabel;html=1;align=center;verticalAlign=middle;resizable=0;points=[];" parent="izFjJcmxxaOLUsGuapBq-104" vertex="1" connectable="0">
          <mxGeometry x="0.1892" y="-1" relative="1" as="geometry">
            <mxPoint as="offset" />
          </mxGeometry>
        </mxCell>
        <mxCell id="izFjJcmxxaOLUsGuapBq-111" style="edgeStyle=orthogonalEdgeStyle;rounded=0;orthogonalLoop=1;jettySize=auto;html=1;exitX=0;exitY=0.25;exitDx=0;exitDy=0;entryX=0;entryY=0.75;entryDx=0;entryDy=0;" parent="1" source="izFjJcmxxaOLUsGuapBq-100" target="Cshjxy_LdJswH7RglqTx-68" edge="1">
          <mxGeometry relative="1" as="geometry" />
        </mxCell>
        <mxCell id="izFjJcmxxaOLUsGuapBq-112" style="edgeStyle=orthogonalEdgeStyle;rounded=0;orthogonalLoop=1;jettySize=auto;html=1;exitX=0;exitY=0.25;exitDx=0;exitDy=0;entryX=0;entryY=0.75;entryDx=0;entryDy=0;" parent="1" source="izFjJcmxxaOLUsGuapBq-100" target="Cshjxy_LdJswH7RglqTx-67" edge="1">
          <mxGeometry relative="1" as="geometry" />
        </mxCell>
        <mxCell id="izFjJcmxxaOLUsGuapBq-113" value="write_enable" style="edgeLabel;html=1;align=center;verticalAlign=middle;resizable=0;points=[];rotation=90;" parent="izFjJcmxxaOLUsGuapBq-112" vertex="1" connectable="0">
          <mxGeometry x="-0.5644" y="-1" relative="1" as="geometry">
            <mxPoint as="offset" />
          </mxGeometry>
        </mxCell>
        <mxCell id="izFjJcmxxaOLUsGuapBq-114" style="edgeStyle=orthogonalEdgeStyle;rounded=0;orthogonalLoop=1;jettySize=auto;html=1;exitX=0;exitY=0.75;exitDx=0;exitDy=0;entryX=0.984;entryY=0.933;entryDx=0;entryDy=0;entryPerimeter=0;startArrow=classic;startFill=1;endArrow=none;endFill=0;" parent="1" source="izFjJcmxxaOLUsGuapBq-100" target="Cshjxy_LdJswH7RglqTx-86" edge="1">
          <mxGeometry relative="1" as="geometry" />
        </mxCell>
        <mxCell id="izFjJcmxxaOLUsGuapBq-115" value="response channel" style="edgeLabel;html=1;align=center;verticalAlign=middle;resizable=0;points=[];" parent="izFjJcmxxaOLUsGuapBq-114" vertex="1" connectable="0">
          <mxGeometry x="0.1985" y="-3" relative="1" as="geometry">
            <mxPoint as="offset" />
          </mxGeometry>
        </mxCell>
        <mxCell id="izFjJcmxxaOLUsGuapBq-116" style="edgeStyle=orthogonalEdgeStyle;rounded=0;orthogonalLoop=1;jettySize=auto;html=1;exitX=1;exitY=0.75;exitDx=0;exitDy=0;startArrow=classic;startFill=1;endArrow=none;endFill=0;" parent="1" source="izFjJcmxxaOLUsGuapBq-100" edge="1">
          <mxGeometry relative="1" as="geometry">
            <mxPoint x="1400" y="2250" as="targetPoint" />
          </mxGeometry>
        </mxCell>
        <mxCell id="izFjJcmxxaOLUsGuapBq-117" value="BaseAddr" style="edgeLabel;html=1;align=center;verticalAlign=middle;resizable=0;points=[];" parent="izFjJcmxxaOLUsGuapBq-116" vertex="1" connectable="0">
          <mxGeometry x="-0.0708" relative="1" as="geometry">
            <mxPoint as="offset" />
          </mxGeometry>
        </mxCell>
        <mxCell id="izFjJcmxxaOLUsGuapBq-122" style="edgeStyle=orthogonalEdgeStyle;rounded=0;orthogonalLoop=1;jettySize=auto;html=1;exitX=1;exitY=0.5;exitDx=0;exitDy=0;startArrow=classic;startFill=1;endArrow=none;endFill=0;" parent="1" source="izFjJcmxxaOLUsGuapBq-100" edge="1">
          <mxGeometry relative="1" as="geometry">
            <mxPoint x="1400" y="2219.666666666667" as="targetPoint" />
          </mxGeometry>
        </mxCell>
        <mxCell id="izFjJcmxxaOLUsGuapBq-123" value="data_req" style="edgeLabel;html=1;align=center;verticalAlign=middle;resizable=0;points=[];" parent="izFjJcmxxaOLUsGuapBq-122" vertex="1" connectable="0">
          <mxGeometry x="-0.1956" y="1" relative="1" as="geometry">
            <mxPoint as="offset" />
          </mxGeometry>
        </mxCell>
        <mxCell id="izFjJcmxxaOLUsGuapBq-124" style="edgeStyle=orthogonalEdgeStyle;rounded=0;orthogonalLoop=1;jettySize=auto;html=1;exitX=1;exitY=0.25;exitDx=0;exitDy=0;" parent="1" source="izFjJcmxxaOLUsGuapBq-100" edge="1">
          <mxGeometry relative="1" as="geometry">
            <mxPoint x="1460" y="2050" as="targetPoint" />
          </mxGeometry>
        </mxCell>
        <mxCell id="izFjJcmxxaOLUsGuapBq-128" value="byte_select" style="edgeLabel;html=1;align=center;verticalAlign=middle;resizable=0;points=[];fontSize=12;fontFamily=Helvetica;fontColor=default;" parent="izFjJcmxxaOLUsGuapBq-124" vertex="1" connectable="0">
          <mxGeometry x="-0.5914" y="1" relative="1" as="geometry">
            <mxPoint as="offset" />
          </mxGeometry>
        </mxCell>
        <mxCell id="izFjJcmxxaOLUsGuapBq-100" value="Control Unit" style="rounded=0;whiteSpace=wrap;html=1;fillColor=#e1d5e7;strokeColor=#9673a6;" parent="1" vertex="1">
          <mxGeometry x="1080" y="2160" width="200" height="120" as="geometry" />
        </mxCell>
        <mxCell id="izFjJcmxxaOLUsGuapBq-142" style="edgeStyle=orthogonalEdgeStyle;rounded=0;orthogonalLoop=1;jettySize=auto;html=1;exitX=1;exitY=0.5;exitDx=0;exitDy=0;fontFamily=Helvetica;fontSize=12;fontColor=default;" parent="1" source="izFjJcmxxaOLUsGuapBq-141" edge="1">
          <mxGeometry relative="1" as="geometry">
            <mxPoint x="560" y="2440.333333333333" as="targetPoint" />
          </mxGeometry>
        </mxCell>
        <mxCell id="izFjJcmxxaOLUsGuapBq-143" value="vsync" style="edgeLabel;html=1;align=center;verticalAlign=middle;resizable=0;points=[];fontSize=12;fontFamily=Helvetica;fontColor=default;" parent="izFjJcmxxaOLUsGuapBq-142" vertex="1" connectable="0">
          <mxGeometry x="0.1586" y="2" relative="1" as="geometry">
            <mxPoint as="offset" />
          </mxGeometry>
        </mxCell>
        <mxCell id="izFjJcmxxaOLUsGuapBq-148" style="edgeStyle=orthogonalEdgeStyle;rounded=0;orthogonalLoop=1;jettySize=auto;html=1;exitX=0;exitY=0.75;exitDx=0;exitDy=0;fontFamily=Helvetica;fontSize=12;fontColor=default;startArrow=classic;startFill=1;endArrow=none;endFill=0;" parent="1" source="izFjJcmxxaOLUsGuapBq-141" edge="1">
          <mxGeometry relative="1" as="geometry">
            <mxPoint x="120" y="2480" as="targetPoint" />
          </mxGeometry>
        </mxCell>
        <mxCell id="izFjJcmxxaOLUsGuapBq-149" value="Vpulse_End" style="edgeLabel;html=1;align=center;verticalAlign=middle;resizable=0;points=[];fontSize=12;fontFamily=Helvetica;fontColor=default;" parent="izFjJcmxxaOLUsGuapBq-148" vertex="1" connectable="0">
          <mxGeometry x="0.0924" y="-3" relative="1" as="geometry">
            <mxPoint as="offset" />
          </mxGeometry>
        </mxCell>
        <mxCell id="izFjJcmxxaOLUsGuapBq-141" value="v_comprator" style="rounded=0;whiteSpace=wrap;html=1;pointerEvents=0;fontFamily=Helvetica;fontSize=12;fillColor=#f8cecc;strokeColor=#b85450;" parent="1" vertex="1">
          <mxGeometry x="320" y="2360" width="120" height="160" as="geometry" />
        </mxCell>
        <mxCell id="izFjJcmxxaOLUsGuapBq-147" style="edgeStyle=orthogonalEdgeStyle;rounded=0;orthogonalLoop=1;jettySize=auto;html=1;exitX=1;exitY=0.25;exitDx=0;exitDy=0;entryX=0;entryY=0.25;entryDx=0;entryDy=0;fontFamily=Helvetica;fontSize=12;fontColor=default;" parent="1" source="izFjJcmxxaOLUsGuapBq-144" target="izFjJcmxxaOLUsGuapBq-141" edge="1">
          <mxGeometry relative="1" as="geometry" />
        </mxCell>
        <mxCell id="izFjJcmxxaOLUsGuapBq-163" style="edgeStyle=orthogonalEdgeStyle;rounded=0;orthogonalLoop=1;jettySize=auto;html=1;exitX=1;exitY=0.25;exitDx=0;exitDy=0;entryX=0;entryY=0.25;entryDx=0;entryDy=0;fontFamily=Helvetica;fontSize=12;fontColor=default;" parent="1" source="izFjJcmxxaOLUsGuapBq-144" target="izFjJcmxxaOLUsGuapBq-158" edge="1">
          <mxGeometry relative="1" as="geometry">
            <Array as="points">
              <mxPoint x="290" y="2400" />
              <mxPoint x="290" y="2800" />
            </Array>
          </mxGeometry>
        </mxCell>
        <mxCell id="izFjJcmxxaOLUsGuapBq-144" value="v_counter" style="rounded=0;whiteSpace=wrap;html=1;pointerEvents=0;fontFamily=Helvetica;fontSize=12;fillColor=#f8cecc;strokeColor=#b85450;" parent="1" vertex="1">
          <mxGeometry x="119" y="2380" width="120" height="80" as="geometry" />
        </mxCell>
        <mxCell id="izFjJcmxxaOLUsGuapBq-150" style="edgeStyle=orthogonalEdgeStyle;rounded=0;orthogonalLoop=1;jettySize=auto;html=1;exitX=1;exitY=0.5;exitDx=0;exitDy=0;fontFamily=Helvetica;fontSize=12;fontColor=default;" parent="1" source="izFjJcmxxaOLUsGuapBq-154" edge="1">
          <mxGeometry relative="1" as="geometry">
            <mxPoint x="560" y="2640.333333333333" as="targetPoint" />
          </mxGeometry>
        </mxCell>
        <mxCell id="izFjJcmxxaOLUsGuapBq-151" value="hsync" style="edgeLabel;html=1;align=center;verticalAlign=middle;resizable=0;points=[];fontSize=12;fontFamily=Helvetica;fontColor=default;" parent="izFjJcmxxaOLUsGuapBq-150" vertex="1" connectable="0">
          <mxGeometry x="0.1586" y="2" relative="1" as="geometry">
            <mxPoint as="offset" />
          </mxGeometry>
        </mxCell>
        <mxCell id="izFjJcmxxaOLUsGuapBq-152" style="edgeStyle=orthogonalEdgeStyle;rounded=0;orthogonalLoop=1;jettySize=auto;html=1;exitX=0;exitY=0.75;exitDx=0;exitDy=0;fontFamily=Helvetica;fontSize=12;fontColor=default;startArrow=classic;startFill=1;endArrow=none;endFill=0;" parent="1" source="izFjJcmxxaOLUsGuapBq-154" edge="1">
          <mxGeometry relative="1" as="geometry">
            <mxPoint x="120" y="2680" as="targetPoint" />
          </mxGeometry>
        </mxCell>
        <mxCell id="izFjJcmxxaOLUsGuapBq-153" value="Hpulse_End" style="edgeLabel;html=1;align=center;verticalAlign=middle;resizable=0;points=[];fontSize=12;fontFamily=Helvetica;fontColor=default;" parent="izFjJcmxxaOLUsGuapBq-152" vertex="1" connectable="0">
          <mxGeometry x="0.0924" y="-3" relative="1" as="geometry">
            <mxPoint as="offset" />
          </mxGeometry>
        </mxCell>
        <mxCell id="izFjJcmxxaOLUsGuapBq-154" value="h_comprator" style="rounded=0;whiteSpace=wrap;html=1;pointerEvents=0;fontFamily=Helvetica;fontSize=12;fillColor=#dae8fc;strokeColor=#6c8ebf;" parent="1" vertex="1">
          <mxGeometry x="320" y="2560" width="120" height="160" as="geometry" />
        </mxCell>
        <mxCell id="izFjJcmxxaOLUsGuapBq-155" style="edgeStyle=orthogonalEdgeStyle;rounded=0;orthogonalLoop=1;jettySize=auto;html=1;exitX=1;exitY=0.25;exitDx=0;exitDy=0;entryX=0;entryY=0.25;entryDx=0;entryDy=0;fontFamily=Helvetica;fontSize=12;fontColor=default;" parent="1" source="izFjJcmxxaOLUsGuapBq-156" target="izFjJcmxxaOLUsGuapBq-154" edge="1">
          <mxGeometry relative="1" as="geometry" />
        </mxCell>
        <mxCell id="izFjJcmxxaOLUsGuapBq-164" style="edgeStyle=orthogonalEdgeStyle;rounded=0;orthogonalLoop=1;jettySize=auto;html=1;exitX=1;exitY=0.25;exitDx=0;exitDy=0;entryX=0;entryY=0.5;entryDx=0;entryDy=0;fontFamily=Helvetica;fontSize=12;fontColor=default;" parent="1" source="izFjJcmxxaOLUsGuapBq-156" target="izFjJcmxxaOLUsGuapBq-158" edge="1">
          <mxGeometry relative="1" as="geometry" />
        </mxCell>
        <mxCell id="izFjJcmxxaOLUsGuapBq-156" value="h_counter" style="rounded=0;whiteSpace=wrap;html=1;pointerEvents=0;fontFamily=Helvetica;fontSize=12;fillColor=#dae8fc;strokeColor=#6c8ebf;" parent="1" vertex="1">
          <mxGeometry x="119" y="2580" width="120" height="80" as="geometry" />
        </mxCell>
        <mxCell id="izFjJcmxxaOLUsGuapBq-161" style="edgeStyle=orthogonalEdgeStyle;rounded=0;orthogonalLoop=1;jettySize=auto;html=1;exitX=0;exitY=0.75;exitDx=0;exitDy=0;fontFamily=Helvetica;fontSize=12;fontColor=default;startArrow=classic;startFill=1;endArrow=none;endFill=0;" parent="1" source="izFjJcmxxaOLUsGuapBq-158" edge="1">
          <mxGeometry relative="1" as="geometry">
            <mxPoint x="120" y="2880" as="targetPoint" />
          </mxGeometry>
        </mxCell>
        <mxCell id="izFjJcmxxaOLUsGuapBq-162" value="Hdata_Begin, Hdata_End, Vdata_Begin, Vdata_End" style="edgeLabel;html=1;align=center;verticalAlign=middle;resizable=0;points=[];fontSize=12;fontFamily=Helvetica;fontColor=default;" parent="izFjJcmxxaOLUsGuapBq-161" vertex="1" connectable="0">
          <mxGeometry x="0.6609" y="-1" relative="1" as="geometry">
            <mxPoint as="offset" />
          </mxGeometry>
        </mxCell>
        <mxCell id="izFjJcmxxaOLUsGuapBq-165" style="edgeStyle=orthogonalEdgeStyle;rounded=0;orthogonalLoop=1;jettySize=auto;html=1;exitX=1;exitY=0.5;exitDx=0;exitDy=0;fontFamily=Helvetica;fontSize=12;fontColor=default;" parent="1" source="izFjJcmxxaOLUsGuapBq-158" edge="1">
          <mxGeometry relative="1" as="geometry">
            <mxPoint x="560" y="2840.333333333333" as="targetPoint" />
          </mxGeometry>
        </mxCell>
        <mxCell id="izFjJcmxxaOLUsGuapBq-166" value="blank" style="edgeLabel;html=1;align=center;verticalAlign=middle;resizable=0;points=[];fontSize=12;fontFamily=Helvetica;fontColor=default;" parent="izFjJcmxxaOLUsGuapBq-165" vertex="1" connectable="0">
          <mxGeometry x="0.0886" y="2" relative="1" as="geometry">
            <mxPoint as="offset" />
          </mxGeometry>
        </mxCell>
        <mxCell id="izFjJcmxxaOLUsGuapBq-167" style="edgeStyle=orthogonalEdgeStyle;rounded=0;orthogonalLoop=1;jettySize=auto;html=1;exitX=1;exitY=0.75;exitDx=0;exitDy=0;fontFamily=Helvetica;fontSize=12;fontColor=default;" parent="1" source="izFjJcmxxaOLUsGuapBq-158" edge="1">
          <mxGeometry relative="1" as="geometry">
            <mxPoint x="560" y="2880.333333333333" as="targetPoint" />
          </mxGeometry>
        </mxCell>
        <mxCell id="izFjJcmxxaOLUsGuapBq-168" value="data_req" style="edgeLabel;html=1;align=center;verticalAlign=middle;resizable=0;points=[];fontSize=12;fontFamily=Helvetica;fontColor=default;" parent="izFjJcmxxaOLUsGuapBq-167" vertex="1" connectable="0">
          <mxGeometry x="0.0414" y="3" relative="1" as="geometry">
            <mxPoint as="offset" />
          </mxGeometry>
        </mxCell>
        <mxCell id="izFjJcmxxaOLUsGuapBq-158" value="d_comprator" style="rounded=0;whiteSpace=wrap;html=1;pointerEvents=0;fontFamily=Helvetica;fontSize=12;fillColor=#fff2cc;strokeColor=#d6b656;" parent="1" vertex="1">
          <mxGeometry x="320" y="2760" width="120" height="160" as="geometry" />
        </mxCell>
        <mxCell id="m5QNzYV6TQo7bTUon-5p-6" style="edgeStyle=orthogonalEdgeStyle;rounded=0;orthogonalLoop=1;jettySize=auto;html=1;exitX=1;exitY=0.25;exitDx=0;exitDy=0;entryX=0.002;entryY=0.135;entryDx=0;entryDy=0;entryPerimeter=0;" parent="1" source="m5QNzYV6TQo7bTUon-5p-5" target="RuJVp1kDImBfiCBolj24-25" edge="1">
          <mxGeometry relative="1" as="geometry" />
        </mxCell>
        <mxCell id="m5QNzYV6TQo7bTUon-5p-7" value="address" style="edgeLabel;html=1;align=center;verticalAlign=middle;resizable=0;points=[];" parent="m5QNzYV6TQo7bTUon-5p-6" vertex="1" connectable="0">
          <mxGeometry x="-0.0395" relative="1" as="geometry">
            <mxPoint as="offset" />
          </mxGeometry>
        </mxCell>
        <mxCell id="m5QNzYV6TQo7bTUon-5p-8" style="edgeStyle=orthogonalEdgeStyle;rounded=0;orthogonalLoop=1;jettySize=auto;html=1;exitX=1;exitY=0.5;exitDx=0;exitDy=0;entryX=0;entryY=0.5;entryDx=0;entryDy=0;" parent="1" source="m5QNzYV6TQo7bTUon-5p-5" target="RuJVp1kDImBfiCBolj24-25" edge="1">
          <mxGeometry relative="1" as="geometry" />
        </mxCell>
        <mxCell id="m5QNzYV6TQo7bTUon-5p-9" value="data" style="edgeLabel;html=1;align=center;verticalAlign=middle;resizable=0;points=[];" parent="m5QNzYV6TQo7bTUon-5p-8" vertex="1" connectable="0">
          <mxGeometry x="-0.0839" relative="1" as="geometry">
            <mxPoint as="offset" />
          </mxGeometry>
        </mxCell>
        <mxCell id="m5QNzYV6TQo7bTUon-5p-10" style="edgeStyle=orthogonalEdgeStyle;rounded=0;orthogonalLoop=1;jettySize=auto;html=1;exitX=1;exitY=0.75;exitDx=0;exitDy=0;entryX=0.017;entryY=0.867;entryDx=0;entryDy=0;entryPerimeter=0;" parent="1" source="m5QNzYV6TQo7bTUon-5p-5" target="RuJVp1kDImBfiCBolj24-25" edge="1">
          <mxGeometry relative="1" as="geometry" />
        </mxCell>
        <mxCell id="m5QNzYV6TQo7bTUon-5p-11" value="write_enable" style="edgeLabel;html=1;align=center;verticalAlign=middle;resizable=0;points=[];" parent="m5QNzYV6TQo7bTUon-5p-10" vertex="1" connectable="0">
          <mxGeometry x="-0.0945" y="2" relative="1" as="geometry">
            <mxPoint as="offset" />
          </mxGeometry>
        </mxCell>
        <mxCell id="m5QNzYV6TQo7bTUon-5p-5" value="APB" style="rounded=0;whiteSpace=wrap;html=1;fillColor=#d5e8d4;strokeColor=#82b366;" parent="1" vertex="1">
          <mxGeometry x="129.5" y="1434" width="30.5" height="120" as="geometry" />
        </mxCell>
        <mxCell id="m5QNzYV6TQo7bTUon-5p-20" style="edgeStyle=orthogonalEdgeStyle;rounded=0;orthogonalLoop=1;jettySize=auto;html=1;exitX=1;exitY=0.25;exitDx=0;exitDy=0;entryX=0.009;entryY=0.129;entryDx=0;entryDy=0;entryPerimeter=0;" parent="1" source="m5QNzYV6TQo7bTUon-5p-19" target="izFjJcmxxaOLUsGuapBq-13" edge="1">
          <mxGeometry relative="1" as="geometry" />
        </mxCell>
        <mxCell id="m5QNzYV6TQo7bTUon-5p-22" value="apb_input" style="edgeLabel;html=1;align=center;verticalAlign=middle;resizable=0;points=[];" parent="m5QNzYV6TQo7bTUon-5p-20" vertex="1" connectable="0">
          <mxGeometry x="-0.2787" relative="1" as="geometry">
            <mxPoint x="3" as="offset" />
          </mxGeometry>
        </mxCell>
        <mxCell id="m5QNzYV6TQo7bTUon-5p-19" value="APB" style="rounded=0;whiteSpace=wrap;html=1;fillColor=#ffe6cc;strokeColor=#d79b00;" parent="1" vertex="1">
          <mxGeometry x="130" y="1954" width="23" height="120" as="geometry" />
        </mxCell>
        <mxCell id="e4feeKlr6qVUvJZXgnHf-1" value="BaseAddrLow" style="rounded=0;whiteSpace=wrap;html=1;fillColor=#d5e8d4;strokeColor=#82b366;" vertex="1" parent="1">
          <mxGeometry x="1160" y="1720" width="80" height="40" as="geometry" />
        </mxCell>
        <mxCell id="e4feeKlr6qVUvJZXgnHf-3" value="32 bits" style="text;html=1;strokeColor=none;fillColor=none;align=center;verticalAlign=middle;whiteSpace=wrap;rounded=0;" vertex="1" parent="1">
          <mxGeometry x="1070" y="1650" width="60" height="30" as="geometry" />
        </mxCell>
        <mxCell id="e4feeKlr6qVUvJZXgnHf-5" value="Writable Registers" style="text;html=1;strokeColor=none;fillColor=none;align=center;verticalAlign=middle;whiteSpace=wrap;rounded=0;" vertex="1" parent="1">
          <mxGeometry x="1144.5" y="1770" width="111" height="30" as="geometry" />
        </mxCell>
        <mxCell id="e4feeKlr6qVUvJZXgnHf-9" value="Ping" style="rounded=0;whiteSpace=wrap;html=1;fillColor=#dae8fc;strokeColor=#6c8ebf;" vertex="1" parent="1">
          <mxGeometry x="1100" y="1860" width="200" height="120" as="geometry" />
        </mxCell>
        <mxCell id="e4feeKlr6qVUvJZXgnHf-11" value="Pong" style="rounded=0;whiteSpace=wrap;html=1;fillColor=#fff2cc;strokeColor=#d6b656;" vertex="1" parent="1">
          <mxGeometry x="1100" y="2010" width="200" height="120" as="geometry" />
        </mxCell>
        <mxCell id="e4feeKlr6qVUvJZXgnHf-8" value="Ping" style="rounded=0;whiteSpace=wrap;html=1;fillColor=#dae8fc;strokeColor=#6c8ebf;" vertex="1" parent="1">
          <mxGeometry x="1090" y="1850" width="200" height="120" as="geometry" />
        </mxCell>
        <mxCell id="Cshjxy_LdJswH7RglqTx-67" value="Ping[63:0]" style="rounded=0;whiteSpace=wrap;html=1;fillColor=#dae8fc;strokeColor=#6c8ebf;" parent="1" vertex="1">
          <mxGeometry x="1080" y="1840" width="200" height="120" as="geometry" />
        </mxCell>
        <mxCell id="izFjJcmxxaOLUsGuapBq-129" style="edgeStyle=orthogonalEdgeStyle;rounded=0;orthogonalLoop=1;jettySize=auto;html=1;exitX=1;exitY=0.5;exitDx=0;exitDy=0;fontFamily=Helvetica;fontSize=12;fontColor=default;" parent="1" source="Cshjxy_LdJswH7RglqTx-67" edge="1">
          <mxGeometry relative="1" as="geometry">
            <mxPoint x="1402.034482758621" y="1899.9655172413795" as="targetPoint" />
          </mxGeometry>
        </mxCell>
        <mxCell id="izFjJcmxxaOLUsGuapBq-132" value="data[63:0]" style="edgeLabel;html=1;align=center;verticalAlign=middle;resizable=0;points=[];fontSize=12;fontFamily=Helvetica;fontColor=default;" parent="izFjJcmxxaOLUsGuapBq-129" vertex="1" connectable="0">
          <mxGeometry x="-0.5503" relative="1" as="geometry">
            <mxPoint x="4" as="offset" />
          </mxGeometry>
        </mxCell>
        <mxCell id="e4feeKlr6qVUvJZXgnHf-10" value="Pong" style="rounded=0;whiteSpace=wrap;html=1;fillColor=#fff2cc;strokeColor=#d6b656;" vertex="1" parent="1">
          <mxGeometry x="1090" y="2000" width="200" height="120" as="geometry" />
        </mxCell>
        <mxCell id="Cshjxy_LdJswH7RglqTx-68" value="Pong[63:0]" style="rounded=0;whiteSpace=wrap;html=1;fillColor=#fff2cc;strokeColor=#d6b656;" parent="1" vertex="1">
          <mxGeometry x="1080" y="1990" width="200" height="120" as="geometry" />
        </mxCell>
        <mxCell id="izFjJcmxxaOLUsGuapBq-130" style="edgeStyle=orthogonalEdgeStyle;rounded=0;orthogonalLoop=1;jettySize=auto;html=1;exitX=1;exitY=0.5;exitDx=0;exitDy=0;fontFamily=Helvetica;fontSize=12;fontColor=default;" parent="1" source="Cshjxy_LdJswH7RglqTx-68" edge="1">
          <mxGeometry relative="1" as="geometry">
            <mxPoint x="1404.1034482758623" y="2049.9655172413795" as="targetPoint" />
          </mxGeometry>
        </mxCell>
        <mxCell id="izFjJcmxxaOLUsGuapBq-131" value="data[63:0]" style="edgeLabel;html=1;align=center;verticalAlign=middle;resizable=0;points=[];fontSize=12;fontFamily=Helvetica;fontColor=default;" parent="izFjJcmxxaOLUsGuapBq-130" vertex="1" connectable="0">
          <mxGeometry x="-0.4027" y="1" relative="1" as="geometry">
            <mxPoint as="offset" />
          </mxGeometry>
        </mxCell>
        <mxCell id="e4feeKlr6qVUvJZXgnHf-13" value="x32" style="text;html=1;strokeColor=none;fillColor=none;align=center;verticalAlign=middle;whiteSpace=wrap;rounded=0;" vertex="1" parent="1">
          <mxGeometry x="1270" y="1835" width="60" height="30" as="geometry" />
        </mxCell>
        <mxCell id="e4feeKlr6qVUvJZXgnHf-14" value="x32" style="text;html=1;strokeColor=none;fillColor=none;align=center;verticalAlign=middle;whiteSpace=wrap;rounded=0;" vertex="1" parent="1">
          <mxGeometry x="1264" y="1980" width="60" height="30" as="geometry" />
        </mxCell>
        <mxCell id="e4feeKlr6qVUvJZXgnHf-17" value="C" style="rounded=1;whiteSpace=wrap;html=1;fillColor=#fff2cc;strokeColor=#d6b656;" vertex="1" parent="1">
          <mxGeometry x="1120" y="2560" width="80" height="40" as="geometry" />
        </mxCell>
        <mxCell id="e4feeKlr6qVUvJZXgnHf-18" value="H" style="rounded=1;whiteSpace=wrap;html=1;fillColor=#d5e8d4;strokeColor=#82b366;" vertex="1" parent="1">
          <mxGeometry x="1200" y="2560" width="80" height="40" as="geometry" />
        </mxCell>
        <mxCell id="e4feeKlr6qVUvJZXgnHf-19" value="L" style="rounded=1;whiteSpace=wrap;html=1;fillColor=#d5e8d4;strokeColor=#82b366;" vertex="1" parent="1">
          <mxGeometry x="1120" y="2600" width="80" height="40" as="geometry" />
        </mxCell>
        <mxCell id="e4feeKlr6qVUvJZXgnHf-20" value="" style="rounded=1;whiteSpace=wrap;html=1;" vertex="1" parent="1">
          <mxGeometry x="1200" y="2600" width="80" height="40" as="geometry" />
        </mxCell>
        <mxCell id="e4feeKlr6qVUvJZXgnHf-21" value="" style="rounded=1;whiteSpace=wrap;html=1;" vertex="1" parent="1">
          <mxGeometry x="1120" y="2480" width="80" height="40" as="geometry" />
        </mxCell>
        <mxCell id="e4feeKlr6qVUvJZXgnHf-22" value="C" style="rounded=1;whiteSpace=wrap;html=1;fillColor=#f8cecc;strokeColor=#b85450;" vertex="1" parent="1">
          <mxGeometry x="1200" y="2480" width="80" height="40" as="geometry" />
        </mxCell>
        <mxCell id="e4feeKlr6qVUvJZXgnHf-23" value="H" style="rounded=1;whiteSpace=wrap;html=1;fillColor=#dae8fc;strokeColor=#6c8ebf;" vertex="1" parent="1">
          <mxGeometry x="1120" y="2520" width="80" height="40" as="geometry" />
        </mxCell>
        <mxCell id="e4feeKlr6qVUvJZXgnHf-24" value="L" style="rounded=1;whiteSpace=wrap;html=1;fillColor=#dae8fc;strokeColor=#6c8ebf;" vertex="1" parent="1">
          <mxGeometry x="1200" y="2520" width="80" height="40" as="geometry" />
        </mxCell>
        <mxCell id="e4feeKlr6qVUvJZXgnHf-27" value="H" style="rounded=1;whiteSpace=wrap;html=1;fillColor=#d5e8d4;strokeColor=#82b366;" vertex="1" parent="1">
          <mxGeometry x="1280" y="2760" width="80" height="40" as="geometry" />
        </mxCell>
        <mxCell id="e4feeKlr6qVUvJZXgnHf-28" value="C" style="rounded=1;whiteSpace=wrap;html=1;fillColor=#fff2cc;strokeColor=#d6b656;" vertex="1" parent="1">
          <mxGeometry x="1200" y="2760" width="80" height="40" as="geometry" />
        </mxCell>
        <mxCell id="e4feeKlr6qVUvJZXgnHf-29" value="L" style="rounded=1;whiteSpace=wrap;html=1;fillColor=#dae8fc;strokeColor=#6c8ebf;" vertex="1" parent="1">
          <mxGeometry x="1120" y="2760" width="80" height="40" as="geometry" />
        </mxCell>
        <mxCell id="e4feeKlr6qVUvJZXgnHf-30" value="H" style="rounded=1;whiteSpace=wrap;html=1;fillColor=#dae8fc;strokeColor=#6c8ebf;" vertex="1" parent="1">
          <mxGeometry x="1040" y="2760" width="80" height="40" as="geometry" />
        </mxCell>
        <mxCell id="e4feeKlr6qVUvJZXgnHf-31" value="C" style="rounded=1;whiteSpace=wrap;html=1;fillColor=#f8cecc;strokeColor=#b85450;" vertex="1" parent="1">
          <mxGeometry x="960" y="2760" width="80" height="40" as="geometry" />
        </mxCell>
        <mxCell id="e4feeKlr6qVUvJZXgnHf-33" value="Left" style="text;html=1;strokeColor=none;fillColor=none;align=center;verticalAlign=middle;whiteSpace=wrap;rounded=0;" vertex="1" parent="1">
          <mxGeometry x="1130" y="2440" width="60" height="30" as="geometry" />
        </mxCell>
        <mxCell id="e4feeKlr6qVUvJZXgnHf-34" value="Right" style="text;html=1;strokeColor=none;fillColor=none;align=center;verticalAlign=middle;whiteSpace=wrap;rounded=0;" vertex="1" parent="1">
          <mxGeometry x="1211" y="2440" width="60" height="30" as="geometry" />
        </mxCell>
        <mxCell id="e4feeKlr6qVUvJZXgnHf-35" value="FIFO" style="text;html=1;strokeColor=none;fillColor=none;align=center;verticalAlign=middle;whiteSpace=wrap;rounded=0;" vertex="1" parent="1">
          <mxGeometry x="1170" y="2810" width="60" height="30" as="geometry" />
        </mxCell>
        <mxCell id="e4feeKlr6qVUvJZXgnHf-36" value="头" style="text;html=1;strokeColor=none;fillColor=none;align=center;verticalAlign=middle;whiteSpace=wrap;rounded=0;" vertex="1" parent="1">
          <mxGeometry x="1320" y="2810" width="60" height="30" as="geometry" />
        </mxCell>
        <mxCell id="e4feeKlr6qVUvJZXgnHf-37" value="尾" style="text;html=1;strokeColor=none;fillColor=none;align=center;verticalAlign=middle;whiteSpace=wrap;rounded=0;" vertex="1" parent="1">
          <mxGeometry x="940" y="2810" width="60" height="30" as="geometry" />
        </mxCell>
        <mxCell id="e4feeKlr6qVUvJZXgnHf-38" value="0" style="text;html=1;strokeColor=none;fillColor=none;align=center;verticalAlign=middle;whiteSpace=wrap;rounded=0;" vertex="1" parent="1">
          <mxGeometry x="1260" y="2640" width="60" height="30" as="geometry" />
        </mxCell>
        <mxCell id="e4feeKlr6qVUvJZXgnHf-39" value="2" style="text;html=1;strokeColor=none;fillColor=none;align=center;verticalAlign=middle;whiteSpace=wrap;rounded=0;" vertex="1" parent="1">
          <mxGeometry x="1170" y="2640" width="60" height="30" as="geometry" />
        </mxCell>
        <mxCell id="e4feeKlr6qVUvJZXgnHf-40" value="4" style="text;html=1;strokeColor=none;fillColor=none;align=center;verticalAlign=middle;whiteSpace=wrap;rounded=0;" vertex="1" parent="1">
          <mxGeometry x="1264" y="2570" width="60" height="30" as="geometry" />
        </mxCell>
        <mxCell id="e4feeKlr6qVUvJZXgnHf-41" value="8" style="text;html=1;strokeColor=none;fillColor=none;align=center;verticalAlign=middle;whiteSpace=wrap;rounded=0;" vertex="1" parent="1">
          <mxGeometry x="1264" y="2525" width="60" height="30" as="geometry" />
        </mxCell>
        <mxCell id="e4feeKlr6qVUvJZXgnHf-42" value="" style="endArrow=classic;html=1;rounded=0;entryX=0.894;entryY=-0.069;entryDx=0;entryDy=0;entryPerimeter=0;" edge="1" parent="1" target="e4feeKlr6qVUvJZXgnHf-27">
          <mxGeometry width="50" height="50" relative="1" as="geometry">
            <mxPoint x="1290" y="2600" as="sourcePoint" />
            <mxPoint x="1340" y="2550" as="targetPoint" />
          </mxGeometry>
        </mxCell>
      </root>
    </mxGraphModel>
  </diagram>
</mxfile>
